<svg width="161" height="140" viewBox="0 0 161 140" fill="none" xmlns="http://www.w3.org/2000/svg">
<g clip-path="url(#clip0)">
<path fill-rule="evenodd" clip-rule="evenodd" d="M140.642 0.627441C129.549 0.627441 120.514 10.4751 120.514 22.7063C120.514 34.8748 129.491 44.7852 140.642 44.7852C143.902 44.7852 146.99 43.907 149.734 42.4016L131.779 22.7063L149.734 3.01095C146.99 1.50558 143.902 0.627441 140.642 0.627441ZM155.167 37.9482L141.271 22.7063L155.167 7.46436C158.655 11.416 160.771 16.8102 160.771 22.7063C160.771 28.6024 158.598 33.9966 155.167 37.9482Z" fill="#D22730"/>
<path fill-rule="evenodd" clip-rule="evenodd" d="M80.4288 0C72.5947 0 65.7899 4.89247 62.4732 12.1057H98.3845C95.0106 4.89247 88.263 0 80.4288 0ZM60.4718 19.4444C60.3574 20.3226 60.3574 21.2007 60.3574 22.0789C60.3574 29.2921 63.5025 35.69 68.4203 39.7043L78.9992 19.4444H60.4718ZM74.3102 43.0914L86.719 19.4444H100.386C100.5 20.3226 100.5 21.2007 100.5 22.0789C100.5 34.2473 91.5224 44.1577 80.3716 44.1577C78.2559 44.095 76.1973 43.7186 74.3102 43.0914Z" fill="#D22730"/>
<path fill-rule="evenodd" clip-rule="evenodd" d="M20.2145 0C12.3804 0 5.57555 4.89247 2.25891 12.1057H38.1701C34.7963 4.89247 28.0487 0 20.2145 0ZM0.200304 19.4444C0.143121 20.3226 0.0859375 21.2007 0.0859375 22.0789C0.0859375 29.2921 3.23103 35.69 8.14881 39.7043L18.7849 19.4444H0.200304ZM14.0959 43.0914L26.5047 19.4444H40.1715C40.2859 20.3226 40.2859 21.2007 40.2859 22.0789C40.2859 34.2473 31.3081 44.1577 20.1573 44.1577C18.0415 44.095 15.9829 43.7186 14.0959 43.0914Z" fill="#D22730"/>
<path fill-rule="evenodd" clip-rule="evenodd" d="M67.9626 67.1772H50.8647L48.2343 80.3493C47.7196 82.9837 46.5188 84.1127 44.7461 84.6145L46.9763 89.3188C50.5216 88.0643 53.2092 85.7435 54.1814 81.1647L55.9541 72.5088H60.4144L58.0127 89.0052H64.8175L67.9626 67.1772Z" fill="#26213F"/>
<path fill-rule="evenodd" clip-rule="evenodd" d="M110.22 70.6896C109.992 72.3204 109.763 73.9513 109.534 75.5194C107.533 75.5194 105.531 75.5194 103.53 75.5194C103.816 73.7004 104.102 71.8186 104.388 69.9997C104.502 69.0588 104.616 68.1179 104.731 67.1771C100.785 67.1143 98.2117 66.6126 97.5827 70.5642L94.8379 88.8796H101.528L102.786 80.4746H108.791L107.59 88.8796H114.223C115.138 82.6072 116.053 76.2721 116.968 69.9997C117.025 69.686 117.368 67.0516 117.197 67.1143C112.851 67.1771 110.792 66.5498 110.22 70.6896Z" fill="#26213F"/>
<path fill-rule="evenodd" clip-rule="evenodd" d="M31.308 83.2343C30.7361 83.987 28.2773 85.2415 27.3623 85.4924L29.3066 89.9458C33.1378 89.3813 35.7111 86.7469 37.1407 84.5515C40.2286 79.8472 43.2593 72.2576 45.9469 67.2397H39.7139L34.4531 77.7146L32.3373 69.6859C31.8226 67.6788 30.4502 67.1143 27.9913 67.1143C26.9048 67.1143 25.6468 67.3652 24.7891 67.8042L28.9635 80.9135C29.3637 81.9798 30.4502 82.9834 31.308 83.2343Z" fill="#26213F"/>
<path fill-rule="evenodd" clip-rule="evenodd" d="M78.6556 83.2343C78.0838 83.987 75.6249 85.2415 74.71 85.4924L76.6542 89.9458C80.4855 89.3813 83.0588 86.7469 84.4883 84.5515C87.5762 79.8472 90.607 72.2576 93.2946 67.2397H87.0616L81.8007 77.7146L79.6849 69.6859C79.1703 67.6788 77.7979 67.1143 75.339 67.1143C74.2525 67.1143 72.9945 67.3652 72.1367 67.8042L76.3111 80.9135C76.6542 81.9798 77.7407 82.9834 78.6556 83.2343Z" fill="#26213F"/>
<path fill-rule="evenodd" clip-rule="evenodd" d="M20.6143 67.4907H0.885963L0.142578 72.4459H6.66149L4.14542 88.6287H10.7787L13.352 72.4459H19.8709L20.6143 67.4907Z" fill="#26213F"/>
<path fill-rule="evenodd" clip-rule="evenodd" d="M26.79 113.468C27.5905 113.593 28.4483 113.656 29.306 113.656C34.9672 113.656 39.7706 111.586 39.7706 105.941C39.7706 102.177 37.2545 99.8564 32.5655 99.8564C25.0745 99.8564 20.7285 105.69 20.7285 113.217C20.7285 118.674 23.8164 121.81 29.4776 121.81C32.5655 121.81 35.4247 121.057 38.0551 119.426L35.9393 114.847C33.0801 116.478 26.9043 118.423 26.79 113.468ZM31.479 104.874C32.7942 104.874 33.4232 105.627 33.4232 106.693C33.4232 108.889 31.4218 110.018 29.0773 110.018C28.5055 110.018 27.8193 109.955 27.1331 109.955C27.7621 107.007 29.1917 104.874 31.479 104.874Z" fill="#26213F"/>
<path fill-rule="evenodd" clip-rule="evenodd" d="M64.3026 99.731H47.8338L45.3749 112.715C44.8603 115.349 43.545 116.29 41.8867 116.792L44.1741 121.747C47.6051 120.493 50.2355 118.235 51.0933 113.656L52.8088 104.561H57.1547L54.8102 121.371H61.3863L64.3026 99.731Z" fill="#26213F"/>
<path fill-rule="evenodd" clip-rule="evenodd" d="M73.1103 113.342C73.9108 113.468 74.7686 113.53 75.6263 113.53C81.2875 113.53 86.0909 111.46 86.0909 105.815C86.0909 102.052 83.5748 99.731 78.8858 99.731C71.3948 99.731 67.0488 105.564 67.0488 113.091C67.0488 118.548 70.1367 121.684 75.7979 121.684C78.8858 121.684 81.745 120.932 84.3754 119.301L82.2596 114.597C79.6864 116.227 73.8537 118.862 73.1103 113.342ZM77.8565 104.749C79.1717 104.749 79.8007 105.502 79.8007 106.568C79.8007 108.763 77.7993 109.892 75.4548 109.892C74.883 109.892 74.1968 109.83 73.5106 109.83C74.0824 106.944 75.512 104.749 77.8565 104.749Z" fill="#26213F"/>
<path fill-rule="evenodd" clip-rule="evenodd" d="M97.2983 102.052C97.2983 100.609 96.4978 99.7312 94.9538 99.7312L91.2369 99.7939L88.0918 121.308H94.6107L97.2983 102.554C97.2983 102.24 97.2983 102.177 97.2983 102.052ZM111.08 99.6685L103.245 109.579L109.764 120.869C108.22 121.559 106.905 121.685 105.59 121.685C103.074 121.685 102.045 120.869 101.301 119.489L96.3262 110.143L104.732 99.7312L111.08 99.6685Z" fill="#26213F"/>
<path fill-rule="evenodd" clip-rule="evenodd" d="M121.772 121.747C129.263 121.747 133.609 116.478 133.609 108.826C133.609 103.118 130.407 99.731 124.402 99.731C116.797 99.731 112.051 105.062 112.051 112.715C112.108 118.36 115.711 121.747 121.772 121.747ZM122.287 116.541C120.228 116.541 119.027 115.098 119.027 112.464C119.027 108.951 120.571 104.812 123.773 104.812C126.004 104.812 127.09 106.317 127.09 108.889C127.09 112.589 125.489 116.541 122.287 116.541Z" fill="#26213F"/>
<path fill-rule="evenodd" clip-rule="evenodd" d="M157.97 99.731C157.112 99.731 155.74 100.045 154.939 100.546L149.907 113.656L148.306 102.303C148.077 100.358 146.419 99.731 144.075 99.731C143.102 99.731 141.787 100.107 141.044 100.546L136.012 121.308H141.044L144.075 108.324L145.39 121.308H150.193L155.168 108.45L154.425 121.308H160.658L161.058 99.731H157.97Z" fill="#26213F"/>
<path fill-rule="evenodd" clip-rule="evenodd" d="M19.8137 99.6055H0.885963L0.142578 104.686H6.43276L3.97387 121.057H10.3784L12.8373 104.686H19.1275L19.8137 99.6055Z" fill="#26213F"/>
<path fill-rule="evenodd" clip-rule="evenodd" d="M114.738 135.734C115.081 135.734 115.31 135.609 115.539 135.358C115.768 135.107 115.825 134.793 115.825 134.48C115.825 134.104 115.71 133.79 115.539 133.602C115.31 133.351 115.081 133.225 114.738 133.225H113.423V135.734H114.738ZM114.738 132.473C115.253 132.473 115.71 132.661 116.053 133.037C116.397 133.414 116.568 133.915 116.568 134.48C116.568 135.044 116.397 135.546 116.053 135.923C115.71 136.299 115.253 136.487 114.738 136.487H113.423V138.745H112.68V132.41H114.738V132.473ZM107.304 137.992H109.992V138.808H106.561V132.473H109.935V133.288H107.304V135.233H109.706V136.048H107.304V137.992ZM99.8705 137.992H102.444V133.225H100.328V135.797C100.328 136.738 100.156 137.491 99.8705 137.992ZM103.244 137.992H103.873V140H103.13V138.808H99.3559V140H98.6125V137.992H99.1271C99.4702 137.491 99.6418 136.738 99.6418 135.734V132.41H103.302V137.992H103.244ZM95.2387 138.808V134.104L92.2651 138.808H91.6361V132.473H92.3795V137.24L95.353 132.473H95.9821V138.808H95.2387ZM92.7226 131.783V131.093H94.9528V131.783H92.7226ZM85.5747 136.612H87.6333L86.604 133.476L85.5747 136.612ZM88.3767 138.808L87.9192 137.365H85.3459L84.8885 138.808H84.0879L86.2037 132.473H87.0614L89.1772 138.808H88.3767ZM80.1994 137.992C80.4282 137.992 80.6569 137.867 80.8284 137.679C81 137.491 81.1144 137.24 81.1144 136.926C81.1144 136.675 81 136.424 80.8284 136.173C80.6569 135.985 80.4282 135.86 80.1994 135.86H78.4839V137.93H80.1994V137.992ZM80.0279 133.225H78.4839V135.17H80.0279C80.2566 135.17 80.4853 135.107 80.6569 134.919C80.8284 134.731 80.8856 134.48 80.8856 134.229C80.8856 133.978 80.8284 133.727 80.6569 133.539C80.4853 133.351 80.2566 133.225 80.0279 133.225ZM81 135.483C81.2859 135.609 81.4575 135.797 81.629 136.111C81.8006 136.362 81.8577 136.675 81.8577 136.989C81.8577 137.491 81.6862 137.93 81.4003 138.243C81.0572 138.557 80.6569 138.745 80.1994 138.745H77.7405V132.41H80.0279C80.4853 132.41 80.8284 132.598 81.1715 132.912C81.4575 133.225 81.629 133.664 81.629 134.166C81.629 134.731 81.4575 135.17 81 135.483ZM70.4782 137.365C70.8785 137.867 71.4504 138.055 72.0794 138.055C72.7084 138.055 73.223 137.804 73.6805 137.365C74.0808 136.863 74.3095 136.299 74.3095 135.609C74.3095 134.919 74.0808 134.292 73.6805 133.853C73.2802 133.351 72.7084 133.163 72.0794 133.163C71.4504 133.163 70.9357 133.414 70.4782 133.853C70.0779 134.354 69.8492 134.919 69.8492 135.609C69.8492 136.299 70.0779 136.926 70.4782 137.365ZM74.138 137.93C73.5661 138.557 72.8799 138.871 72.0222 138.871C71.1644 138.871 70.4782 138.557 69.9064 137.93C69.3346 137.302 69.0487 136.487 69.0487 135.609C69.0487 134.668 69.3346 133.915 69.9064 133.288C70.4782 132.661 71.1644 132.347 72.0222 132.347C72.8799 132.347 73.5661 132.661 74.138 133.288C74.7098 133.915 74.9957 134.731 74.9957 135.609C75.0529 136.55 74.7098 137.302 74.138 137.93ZM64.8743 135.734C65.2174 135.734 65.4461 135.609 65.6748 135.358C65.9036 135.107 65.9607 134.793 65.9607 134.48C65.9607 134.104 65.8464 133.79 65.6748 133.602C65.4461 133.351 65.2174 133.225 64.8743 133.225H63.559V135.734H64.8743ZM64.8743 132.473C65.3889 132.473 65.8464 132.661 66.1895 133.037C66.5326 133.414 66.7041 133.915 66.7041 134.48C66.7041 135.044 66.5326 135.546 66.1895 135.923C65.8464 136.299 65.3889 136.487 64.8743 136.487H63.559V138.745H62.8157V132.41H64.8743V132.473ZM59.7277 132.473V138.808H58.9844V133.288H56.3539V138.808H55.6105V132.473H59.7277ZM50.9787 132.473V133.288H49.2632V138.808H48.5198V133.288H46.8043V132.473H50.9787ZM41.9437 137.992H44.6313V138.808H41.2003V132.473H44.5741V133.288H41.9437V135.233H44.3454V136.048H41.9437V137.992ZM37.369 132.473H38.1124V138.808H37.369V135.985H34.567V138.808H33.8236V132.473H34.567V135.17H37.369V132.473ZM29.249 135.734C29.5921 135.734 29.8208 135.609 30.0495 135.358C30.2783 135.107 30.3354 134.793 30.3354 134.48C30.3354 134.104 30.2211 133.79 30.0495 133.602C29.8208 133.351 29.5921 133.225 29.249 133.225H27.9337V135.734H29.249ZM29.249 132.473C29.7636 132.473 30.2211 132.661 30.5642 133.037C30.9073 133.414 31.0788 133.915 31.0788 134.48C31.0788 135.044 30.9073 135.546 30.5642 135.923C30.2211 136.299 29.7636 136.487 29.249 136.487H27.9337V138.745H27.1904V132.41H29.249V132.473ZM21.8151 137.992H24.5027V138.808H21.0717V132.473H24.4455V133.288H21.8151V135.233H24.2168V136.048H21.8151V137.992ZM18.4985 132.473V133.288H16.783V138.808H16.0396V133.288H14.3241V132.473H18.4985ZM11.0074 132.473H11.7508V138.808H11.0074V135.985H8.20545V138.808H7.46206V132.473H8.20545V135.17H11.0074V132.473ZM3.68795 138.808V134.104L0.714413 138.808H0.142578V132.473H0.885963V137.24L3.8595 132.473H4.48852V138.808H3.68795Z" fill="#26213F"/>
</g>
<defs>
<clipPath id="clip0">
<rect width="160.914" height="140" fill="white" transform="translate(0.0859375)"/>
</clipPath>
</defs>
</svg>
