<svg width="176" height="45" viewBox="0 0 176 45" fill="none" xmlns="http://www.w3.org/2000/svg">
<path fill-rule="evenodd" clip-rule="evenodd" d="M153.953 0.628174C141.802 0.628174 131.906 10.4927 131.906 22.7449C131.906 34.9343 141.739 44.8617 153.953 44.8617C157.523 44.8617 160.905 43.982 163.912 42.4741L144.245 22.7449L163.912 3.01578C160.905 1.44499 157.523 0.628174 153.953 0.628174ZM169.862 38.013L154.642 22.7449L169.862 7.47682C173.683 11.4352 176 16.8387 176 22.7449C176 28.6511 173.62 34.0546 169.862 38.013Z" fill="#D7282F"/>
<path fill-rule="evenodd" clip-rule="evenodd" d="M88 0C79.4192 0 71.9658 4.90087 68.3331 12.1265H107.667C103.971 4.90087 96.5807 0 88 0ZM66.1409 19.4778C66.0156 20.3575 66.0156 21.2371 66.0156 22.1167C66.0156 29.3424 69.4605 35.7512 74.8469 39.7724L86.4341 19.4778H66.1409ZM81.2982 43.1025L94.8896 19.415H109.859C109.984 20.2946 109.984 21.1743 109.984 22.0539C109.984 34.2433 100.151 44.1707 87.9373 44.1707C85.6199 44.1707 83.3651 43.7937 81.2982 43.1025Z" fill="#D7282F"/>
<path fill-rule="evenodd" clip-rule="evenodd" d="M22.047 0C13.4662 0 6.01281 4.90087 2.38007 12.1265H41.7139C38.0185 4.90087 30.6278 0 22.047 0ZM0.125267 19.4778C0.0626335 20.2946 0 21.1743 0 22.0539C0 29.3424 3.44484 35.7512 8.83132 39.7724L20.5438 19.4778H0.125267ZM15.3452 43.1025L28.9367 19.415H43.9061C44.0313 20.2946 44.0313 21.1743 44.0313 22.0539C44.0313 34.2433 34.1979 44.1707 21.9843 44.1707C19.6669 44.1707 17.4121 43.7937 15.3452 43.1025Z" fill="#D7282F"/>
</svg>
