<svg width="79" height="21" viewBox="0 0 79 21" fill="none" xmlns="http://www.w3.org/2000/svg">
<path fill-rule="evenodd" clip-rule="evenodd" d="M69.1039 0.281982C63.6498 0.281982 59.2078 4.70983 59.2078 10.2094C59.2078 15.6807 63.6216 20.1368 69.1039 20.1368C70.7063 20.1368 72.2245 19.7419 73.574 19.0651L64.7462 10.2094L73.574 1.35369C72.2245 0.648619 70.7063 0.281982 69.1039 0.281982ZM76.2448 17.0627L69.4131 10.2094L76.2448 3.35609C77.9597 5.13287 78.9999 7.55832 78.9999 10.2094C78.9999 12.8604 77.9316 15.2859 76.2448 17.0627Z" fill="#D7282F"/>
<path fill-rule="evenodd" clip-rule="evenodd" d="M39.5001 0C35.6484 0 32.3029 2.19982 30.6723 5.44315H48.3278C46.6691 2.19982 43.3517 0 39.5001 0ZM29.6883 8.74288C29.6321 9.13772 29.6321 9.53256 29.6321 9.9274C29.6321 13.1707 31.1783 16.0474 33.5961 17.8524L38.7972 8.74288H29.6883ZM36.4919 19.3471L42.5926 8.71468H49.3118C49.368 9.10952 49.368 9.50436 49.368 9.8992C49.368 15.3705 44.9541 19.8266 39.4719 19.8266C38.4317 19.8266 37.4196 19.6574 36.4919 19.3471Z" fill="#D7282F"/>
<path fill-rule="evenodd" clip-rule="evenodd" d="M9.89608 0C6.04448 0 2.69893 2.19982 1.06833 5.44315H18.7238C17.0651 2.19982 13.7477 0 9.89608 0ZM0.0562278 8.74288C0.0281139 9.10952 0 9.50436 0 9.8992C0 13.1707 1.54626 16.0474 3.96406 17.8524L9.22135 8.74288H0.0562278ZM6.8879 19.3471L12.9886 8.71468H19.7078C19.7641 9.10952 19.7641 9.50436 19.7641 9.8992C19.7641 15.3705 15.3502 19.8266 9.86797 19.8266C8.82776 19.8266 7.81566 19.6574 6.8879 19.3471Z" fill="#D7282F"/>
</svg>
