<svg width="27" height="27" viewBox="0 0 27 27" fill="none" xmlns="http://www.w3.org/2000/svg">
<path d="M16.2152 2.98264C17.925 2.98264 19.5964 3.47682 21.0181 4.40269C22.4397 5.32856 23.5478 6.64453 24.2021 8.18419C24.8564 9.72385 25.0276 11.418 24.694 13.0525C24.3605 14.687 23.5371 16.1884 22.3281 17.3668C21.1191 18.5452 19.5787 19.3477 17.9017 19.6729C16.2247 19.998 14.4865 19.8311 12.9069 19.1934C11.3272 18.5556 9.97704 17.4756 9.02712 16.09C8.0772 14.7043 7.57018 13.0752 7.57018 11.4087C7.57018 9.17397 8.48099 7.03077 10.1022 5.45058C11.7235 3.87038 13.9224 2.98264 16.2152 2.98264ZM16.2152 0.873169C13.7218 0.875636 11.3059 1.71782 9.37649 3.25713C7.44707 4.79644 6.12268 6.93831 5.62752 9.32013C5.13235 11.702 5.49685 14.1774 6.6593 16.3273C7.82174 18.4773 9.71072 20.1696 12.0064 21.1179C14.6465 22.1962 17.6175 22.2102 20.2681 21.157C22.9188 20.1037 25.0329 18.0691 26.147 15.4992C27.2612 12.9292 27.2844 10.0335 26.2117 7.44683C25.139 4.86016 23.0578 2.79354 20.4244 1.69998C19.0928 1.15047 17.6612 0.86855 16.2152 0.871111V0.873169Z" fill="black"/>
<path d="M0.453283 25.0648L5.88088 19.7746C6.40347 19.2653 7.17575 19.1845 7.59699 19.5951C8.01823 20.0057 7.93536 20.7584 7.41276 21.2677L1.98517 26.5584C1.46258 27.0678 0.690299 27.1485 0.269056 26.738C-0.152187 26.3274 -0.0698388 25.5747 0.453283 25.0648Z" fill="black"/>
</svg>
