<svg width="13" height="7" viewBox="0 0 13 7" fill="none" xmlns="http://www.w3.org/2000/svg">
<path d="M12.6352 0.325865C12.4042 0.11715 12.0916 0 11.7658 0C11.44 0 11.1274 0.11715 10.8964 0.325865L6.46917 4.29283L2.10361 0.325865C1.87255 0.11715 1.55999 0 1.23419 0C0.908398 0 0.595839 0.11715 0.364781 0.325865C0.249195 0.430041 0.15745 0.553981 0.0948421 0.690538C0.0322336 0.827095 0 0.973565 0 1.1215C0 1.26943 0.0322336 1.4159 0.0948421 1.55246C0.15745 1.68902 0.249195 1.81296 0.364781 1.91713L5.59359 6.66853C5.70823 6.77356 5.84463 6.85693 5.99491 6.91382C6.14518 6.97071 6.30637 7 6.46917 7C6.63197 7 6.79316 6.97071 6.94343 6.91382C7.09371 6.85693 7.23011 6.77356 7.34475 6.66853L12.6352 1.91713C12.7508 1.81296 12.8425 1.68902 12.9052 1.55246C12.9678 1.4159 13 1.26943 13 1.1215C13 0.973565 12.9678 0.827095 12.9052 0.690538C12.8425 0.553981 12.7508 0.430041 12.6352 0.325865Z" fill="#D22730"/>
</svg>
