<svg width="435" height="282" viewBox="0 0 435 282" fill="none" xmlns="http://www.w3.org/2000/svg">
<g clip-path="url(#clip0)">
<rect width="435" height="282" fill="#2A2447"/>
<g opacity="0.6">
<path d="M408.277 195.2H336.148V216.876H408.277V195.2Z" fill="#2A2447" stroke="white" stroke-width="0.96" stroke-linecap="round" stroke-linejoin="round"/>
<path d="M347.98 241.431V219.754L369.43 201.731L369.411 223.408L347.98 241.431Z" fill="#2A2447" stroke="white" stroke-width="0.96" stroke-linecap="round" stroke-linejoin="round"/>
<path d="M331.793 204.041C331.793 210.458 338.154 216.157 347.96 219.754V241.411C338.135 237.833 331.793 232.135 331.793 225.717V204.041ZM359.906 222.745V244.402C363.978 245.034 368.092 245.35 372.212 245.349C394.532 245.349 412.631 236.565 412.631 225.736V204.059C412.631 214.907 394.532 223.672 372.212 223.672C368.092 223.681 363.978 223.371 359.906 222.745Z" fill="#2A2447" stroke="white" stroke-width="0.96" stroke-linecap="round" stroke-linejoin="round"/>
<path d="M372.212 184.428C356.461 184.428 342.83 188.801 336.147 195.181H408.276C401.612 188.82 387.963 184.447 372.212 184.428ZM332.077 201.712C331.889 202.474 331.794 203.256 331.793 204.041C331.793 210.459 338.154 216.157 347.96 219.754L369.41 201.731L332.077 201.712ZM359.906 222.745L384.896 201.731H412.346C412.534 202.493 412.63 203.275 412.631 204.06C412.631 214.907 394.532 223.673 372.212 223.673C368.092 223.681 363.978 223.371 359.906 222.745Z" fill="#2A2447" stroke="white" stroke-width="0.96" stroke-linecap="round" stroke-linejoin="round"/>
</g>
<g opacity="0.6">
<path d="M187.457 193.204H115.328V214.88H187.457V193.204Z" fill="#2A2447" stroke="white" stroke-width="0.96" stroke-linecap="round" stroke-linejoin="round"/>
<path d="M127.143 239.435V217.758L148.592 199.735V221.412L127.143 239.435Z" fill="#2A2447" stroke="white" stroke-width="0.96" stroke-linecap="round" stroke-linejoin="round"/>
<path d="M110.955 202.044C110.955 208.462 117.316 214.161 127.142 217.758V239.415C117.335 235.837 110.974 230.139 110.974 223.721L110.955 202.044ZM139.068 220.749V242.406C143.14 243.039 147.254 243.355 151.374 243.353C173.694 243.353 191.793 234.569 191.793 223.74V202.063C191.793 212.911 173.694 221.676 151.374 221.676C147.254 221.685 143.14 221.374 139.068 220.749Z" fill="#2A2447" stroke="white" stroke-width="0.96" stroke-linecap="round" stroke-linejoin="round"/>
<path d="M151.373 182.432C135.622 182.432 121.973 186.805 115.309 193.185H187.419C180.774 186.824 167.124 182.451 151.373 182.432ZM111.238 199.716C111.054 200.479 110.952 201.26 110.936 202.045C110.936 208.462 117.297 214.161 127.122 217.758L148.552 199.735L111.238 199.716ZM139.049 220.749L164.057 199.735H191.508C191.696 200.497 191.791 201.279 191.792 202.064C191.792 212.911 173.693 221.677 151.373 221.677C147.254 221.685 143.14 221.375 139.068 220.749H139.049Z" fill="#2A2447" stroke="white" stroke-width="0.96" stroke-linecap="round" stroke-linejoin="round"/>
</g>
<g opacity="0.6">
<path d="M39.6934 56.9487V78.6252L75.7768 61.1136V39.437L39.6934 56.9487Z" fill="#2A2447" stroke="white" stroke-width="0.96" stroke-linecap="round" stroke-linejoin="round"/>
<path d="M58.7383 56.9487V78.6253L86.7191 92.1992V70.5226L58.7383 56.9487Z" fill="#2A2447" stroke="white" stroke-width="0.96" stroke-linecap="round" stroke-linejoin="round"/>
<path d="M17.1074 56.9487V78.6064C17.1074 89.4541 35.2059 98.2383 57.5262 98.2383C63.666 98.2612 69.7865 97.5494 75.7572 96.118V74.4604C69.7857 75.8852 63.6652 76.5906 57.5262 76.5618C35.2059 76.5618 17.1074 67.7775 17.1074 56.9487ZM86.6996 70.5226C93.6664 67.0014 97.945 62.2117 97.945 56.9487V78.6064C97.945 83.8883 93.6664 88.659 86.6996 92.1803V70.5226Z" fill="#2A2447" stroke="white" stroke-width="0.96" stroke-linecap="round" stroke-linejoin="round"/>
<path d="M57.5262 37.3169C35.2059 37.3169 17.1074 46.1011 17.1074 56.9489C17.1074 67.7966 35.2059 76.5619 57.5262 76.5619C63.6652 76.5908 69.7857 75.8853 75.7572 74.4605L39.6927 56.9489L75.7572 39.4373C69.7865 38.0059 63.666 37.2941 57.5262 37.3169ZM86.6996 70.5228L58.7378 56.9489L86.6996 43.375C93.6664 46.8963 97.945 51.667 97.945 56.9489C97.945 62.2308 93.6664 67.0015 86.6996 70.5228Z" fill="#2A2447" stroke="white" stroke-width="0.96" stroke-linecap="round" stroke-linejoin="round"/>
</g>
<g opacity="0.6">
<path d="M294.467 44.0957H222.338V65.7723H294.467V44.0957Z" fill="#2A2447" stroke="white" stroke-width="0.96" stroke-linecap="round" stroke-linejoin="round"/>
<path d="M234.152 90.3268V68.6502L255.602 50.6274V72.304L234.152 90.3268Z" fill="#2A2447" stroke="white" stroke-width="0.96" stroke-linecap="round" stroke-linejoin="round"/>
<path d="M217.965 52.9365C217.965 59.3543 224.326 65.0527 234.151 68.6497V90.3073C224.345 86.7292 217.984 81.0309 217.984 74.6131L217.965 52.9365ZM246.078 71.6408V93.2985C250.149 93.9308 254.264 94.2472 258.384 94.245C280.704 94.245 298.802 85.4608 298.802 74.632V52.9554C298.802 63.8032 280.704 72.5685 258.384 72.5685C254.264 72.5767 250.15 72.2666 246.078 71.6408Z" fill="#2A2447" stroke="white" stroke-width="0.96" stroke-linecap="round" stroke-linejoin="round"/>
<path d="M258.383 33.3237C242.632 33.3237 228.982 37.6969 222.318 44.0768H294.429C287.784 37.7158 274.134 33.3427 258.383 33.3237ZM218.248 50.6082C218.064 51.3712 217.962 52.1519 217.945 52.9368C217.945 59.3545 224.306 65.0529 234.132 68.6499L255.562 50.6271L218.248 50.6082ZM246.059 71.6411L271.067 50.6271H298.518C298.705 51.3891 298.801 52.1709 298.802 52.9557C298.802 63.8034 280.703 72.5687 258.383 72.5687C254.263 72.5769 250.149 72.2668 246.077 71.6411H246.059Z" fill="#2A2447" stroke="white" stroke-width="0.96" stroke-linecap="round" stroke-linejoin="round"/>
</g>
</g>
<defs>
<clipPath id="clip0">
<rect width="435" height="282" fill="white"/>
</clipPath>
</defs>
</svg>
