<svg width="85" height="82" viewBox="0 0 85 82" fill="none" xmlns="http://www.w3.org/2000/svg">
<g filter="url(#filter0_d)">
<path d="M42.4668 10.1719C30.3279 10.1719 20.4902 19.3282 20.4902 30.6265C20.4902 41.9247 30.3279 51.1346 42.4668 51.1346C54.6057 51.1346 64.4434 41.9247 64.4434 30.68C64.4434 19.3818 54.6057 10.1719 42.4668 10.1719ZM42.4668 49.1534C31.5361 49.1534 22.6189 40.8537 22.6189 30.68C22.6189 20.5063 31.5361 12.1531 42.4668 12.1531C53.3976 12.1531 62.3148 20.4527 62.3148 30.68C62.3148 40.9073 53.3976 49.1534 42.4668 49.1534ZM43.5599 39.0332C43.5599 39.6222 43.0421 40.1041 42.4093 40.1041C41.7765 40.1041 41.2587 39.6222 41.2587 39.0332C41.2587 38.4442 41.7765 37.9623 42.4093 37.9623C43.0421 37.9623 43.5599 38.4442 43.5599 39.0332ZM41.3162 33.7857V21.7378C41.3162 21.2024 41.7765 20.774 42.3518 20.774C42.9271 20.774 43.3873 21.2024 43.3873 21.7378V33.7857C43.3873 34.3211 42.9271 34.7495 42.3518 34.7495C41.7765 34.803 41.3162 34.3211 41.3162 33.7857Z" fill="#D22730"/>
<path d="M42.3518 34.2495H42.3286L42.3054 34.2516C42.0519 34.2752 41.8162 34.0562 41.8162 33.7857V21.7378C41.8162 21.5117 42.0182 21.274 42.3518 21.274C42.6853 21.274 42.8873 21.5117 42.8873 21.7378V33.7857C42.8873 34.0118 42.6853 34.2495 42.3518 34.2495ZM20.9902 30.6265C20.9902 19.6376 30.5697 10.6719 42.4668 10.6719C54.3623 10.6719 63.9434 19.6895 63.9434 30.68C63.9434 41.6162 54.3631 50.6346 42.4668 50.6346C30.5714 50.6346 20.9902 41.617 20.9902 30.6265ZM22.1189 30.68C22.1189 41.1631 31.2943 49.6534 42.4668 49.6534C53.6384 49.6534 62.8148 41.2175 62.8148 30.68C62.8148 20.1443 53.6403 11.6531 42.4668 11.6531C31.2924 11.6531 22.1189 20.1987 22.1189 30.68ZM43.0599 39.0332C43.0599 39.3129 42.8004 39.6041 42.4093 39.6041C42.0182 39.6041 41.7587 39.3129 41.7587 39.0332C41.7587 38.7535 42.0182 38.4623 42.4093 38.4623C42.8004 38.4623 43.0599 38.7535 43.0599 39.0332Z" stroke="#D22730"/>
</g>
<defs>
<filter id="filter0_d" x="0.490234" y="0.171875" width="83.9532" height="80.9627" filterUnits="userSpaceOnUse" color-interpolation-filters="sRGB">
<feFlood flood-opacity="0" result="BackgroundImageFix"/>
<feColorMatrix in="SourceAlpha" type="matrix" values="0 0 0 0 0 0 0 0 0 0 0 0 0 0 0 0 0 0 127 0" result="hardAlpha"/>
<feOffset dy="10"/>
<feGaussianBlur stdDeviation="10"/>
<feColorMatrix type="matrix" values="0 0 0 0 0.507917 0 0 0 0 0.560475 0 0 0 0 0.6625 0 0 0 0.3 0"/>
<feBlend mode="darken" in2="BackgroundImageFix" result="effect1_dropShadow"/>
<feBlend mode="normal" in="SourceGraphic" in2="effect1_dropShadow" result="shape"/>
</filter>
</defs>
</svg>
